# xmcd CD database file
#
# Track frame offsets:
#	150
#	24422
#	40967
#	59280
#	79492
#	95315
#	112480
#	132152
#	148872
#	165162
#	184752
#	210115
#	225890
#	243950
#
# Disc length: 3500 seconds
#
# Revision: 1
# Processed by: cddbd v1.5.2PL0 Copyright (c) Steve Scherf et al.
# Submitted via: CDex 1.70beta2
#
DISCID=b20daa0e
DTITLE=Blues&Ballads - Dreams In Love 1
DYEAR=1900
DGENRE=
TTITLE0=Ricky Wilson - Pleace Forgive Me
TTITLE1=Annie Adams - I Do It For You
TTITLE2=Aida Ross - Live Under The Sun
TTITLE3=Rockband - Losing My Religion
TTITLE4=Sheena Ryder - Without You
TTITLE5=Sex and Passion - Nothing Compares 2 You
TTITLE6=Invection - Broken Land
TTITLE7=Floor - Unchained Melody
TTITLE8=George Matthews - Waiting For That Day
TTITLE9=Sissy Taylor - Woman In Love
TTITLE10=Rockband - Knockin' On Heaven's Door
TTITLE11=Power Band - Now I Know What Made Otis Blue
TTITLE12=Annie Adams - Wind Of Change
TTITLE13=Aida Ross - Lonely Night
EXTD=
EXTT0=
EXTT1=
EXTT2=
EXTT3=
EXTT4=
EXTT5=
EXTT6=
EXTT7=
EXTT8=
EXTT9=
EXTT10=
EXTT11=
EXTT12=
EXTT13=
PLAYORDER=
